<svg width="16" height="15" viewBox="0 0 16 15" fill="none" xmlns="http://www.w3.org/2000/svg">
<path d="M13.6712 14.9434H2.91673C2.38199 14.9434 1.86906 14.731 1.49092 14.3529C1.11277 13.9748 0.900391 13.4618 0.900391 12.9271V2.17259C0.900391 1.63785 1.11279 1.12492 1.49092 0.746775C1.86905 0.368627 2.382 0.15625 2.91673 0.15625H13.6712C14.206 0.15625 14.7189 0.368645 15.097 0.746775C15.4752 1.1249 15.6876 1.63786 15.6876 2.17259V12.9271C15.6876 13.4618 15.4752 13.9747 15.097 14.3529C14.7189 14.731 14.2059 14.9434 13.6712 14.9434ZM2.91673 1.5003C2.54562 1.5003 2.24463 1.8013 2.24463 2.17239V12.9269C2.24463 13.1051 2.31543 13.276 2.44155 13.4021C2.56767 13.5282 2.73857 13.599 2.91674 13.599H13.6712C13.8494 13.599 14.0203 13.5282 14.1464 13.4021C14.2725 13.276 14.3433 13.1051 14.3433 12.9269V2.17239C14.3433 1.99422 14.2725 1.82333 14.1464 1.6972C14.0203 1.57108 13.8494 1.50029 13.6712 1.50029L2.91673 1.5003Z" fill="white"/>
<path d="M8.29417 10.91C7.92283 10.91 7.62207 10.609 7.62207 10.2379V4.86057C7.62207 4.48947 7.92284 4.18848 8.29417 4.18848C8.66549 4.18848 8.96626 4.48948 8.96626 4.86057V10.2379C8.96626 10.4161 8.89546 10.5872 8.76934 10.7131C8.64345 10.8393 8.47234 10.91 8.29417 10.91Z" fill="white"/>
<path d="M10.9831 8.22212H5.60569C5.23459 8.22212 4.93359 7.92135 4.93359 7.55003C4.93359 7.1787 5.2346 6.87793 5.60569 6.87793H10.9831C11.3542 6.87793 11.6552 7.1787 11.6552 7.55003C11.6552 7.92135 11.3541 8.22212 10.9831 8.22212Z" fill="white"/>
</svg>
