<svg width="14" height="15" viewBox="0 0 14 15" fill="none" xmlns="http://www.w3.org/2000/svg">
<g id="Group 1686550950">
<g id="Group 1686550948">
<g id="Group 1686550942">
<g id="Group">
<path id="Vector" d="M12.4115 3.51958H11.103V4.83825C11.103 5.0533 10.987 5.25208 10.7987 5.35975C10.6104 5.46727 10.3783 5.46727 10.1901 5.35975C10.0018 5.25209 9.88574 5.0533 9.88574 4.83825V3.51958H8.55588C8.33852 3.51958 8.1376 3.4048 8.02878 3.2185C7.92009 3.03208 7.92009 2.80264 8.02878 2.61636C8.1376 2.42993 8.33852 2.31528 8.55588 2.31528H9.88574V1.00253C9.88574 0.787477 10.0018 0.5887 10.1901 0.481035C10.3783 0.373509 10.6104 0.373509 10.7987 0.481035C10.987 0.588696 11.103 0.787484 11.103 1.00253V2.31515H12.4328C12.6502 2.31515 12.8511 2.42993 12.96 2.61635C13.0686 2.80264 13.0686 3.03208 12.96 3.2185C12.8511 3.40479 12.6502 3.51958 12.4328 3.51958L12.4115 3.51958Z" fill="#03565A"/>
</g>
</g>
<path id="Vector_2" d="M10.2198 6.74542C10.1673 6.70361 10.102 6.68083 10.0348 6.68083C9.96753 6.68083 9.90228 6.70361 9.84981 6.74542L7.2048 8.8625C7.17085 8.88969 7.14349 8.92412 7.12473 8.96324C7.10596 9.00235 7.09629 9.04516 7.09641 9.08849V14.5041C7.09641 14.5827 7.12781 14.6581 7.18371 14.7136C7.23961 14.7692 7.31543 14.8004 7.39449 14.8004H9.15468C9.23374 14.8004 9.30956 14.7692 9.36546 14.7136C9.42136 14.6581 9.45276 14.5827 9.45276 14.5041V12.4585H10.6309V14.5041C10.6309 14.5827 10.6623 14.6581 10.7182 14.7136C10.7741 14.7692 10.85 14.8004 10.929 14.8004H12.6892C12.7683 14.8004 12.8441 14.7692 12.9 14.7136C12.9559 14.6581 12.9873 14.5827 12.9873 14.5041V9.08615C12.9881 9.04129 12.9786 8.99684 12.9594 8.95623C12.9402 8.91563 12.9118 8.87995 12.8765 8.85196L10.2198 6.74542ZM9.45276 11.2875H8.27459V10.1166H9.45276V11.2875ZM11.8091 11.2875H10.6309V10.1166H11.8091V11.2875ZM4.39838 0.532359C4.3713 0.49178 4.33453 0.458494 4.29136 0.435467C4.24819 0.412441 4.19996 0.400391 4.15097 0.400391C4.10197 0.400391 4.05374 0.412441 4.01057 0.435467C3.9674 0.458494 3.93063 0.49178 3.90355 0.532359L0.0768296 5.35785C0.0444021 5.40643 0.0271831 5.46348 0.0273461 5.52178V14.5041C0.0271911 14.5429 0.0347171 14.5813 0.0494947 14.6172C0.0642723 14.653 0.0860119 14.6856 0.113472 14.7131C0.140933 14.7406 0.173576 14.7625 0.209539 14.7775C0.245501 14.7925 0.284079 14.8002 0.323068 14.8004H3.26851C3.34664 14.7995 3.42125 14.768 3.47617 14.7127C3.53109 14.6575 3.56188 14.583 3.56188 14.5053V12.4585H4.74005V14.5053C4.74005 14.5836 4.77134 14.6586 4.82701 14.714C4.88269 14.7693 4.95821 14.8004 5.03695 14.8004H5.91823L5.99231 8.75443C5.99226 8.66648 6.01214 8.57965 6.05049 8.50039C6.08883 8.42113 6.14466 8.35147 6.2138 8.29659L9.02734 5.97178C9.02734 5.91323 4.39838 0.532359 4.39838 0.532359ZM2.3837 10.1166H1.20552V8.94564H2.3837V10.1166ZM2.3837 6.60374H1.20552V5.43279H2.3837V6.60374ZM4.74005 10.1166H3.56188V8.94564H4.74005V10.1166ZM4.74005 6.60374H3.56188V5.43279H4.74005V6.60374Z" fill="#03565A"/>
</g>
</g>
</svg>
