<svg width="21" height="13" viewBox="0 0 21 13" fill="none" xmlns="http://www.w3.org/2000/svg">
<path d="M7.8481 6.55664C7.11102 7.14211 6.13546 7.4855 5.09471 7.4855C4.05411 7.4855 3.10015 7.14227 2.34132 6.55664C0.953956 7.30367 0 8.69684 0 10.3122V12.1091C0 12.5129 0.346914 12.8562 0.802119 12.8562H9.43074C9.8643 12.8562 10.2329 12.5331 10.2329 12.1091L10.233 10.3122C10.2114 8.69684 9.25741 7.30367 7.8481 6.55664Z" fill="#03565A"/>
<path d="M5.09335 6.53698C6.87102 6.53698 8.32341 5.18419 8.32341 3.5285C8.32326 1.87291 6.89247 0.5 5.09335 0.5C3.31567 0.5 1.86328 1.85279 1.86328 3.50849C1.86328 5.16407 3.31571 6.53698 5.09335 6.53698Z" fill="#03565A"/>
<path d="M15.566 2.62052H19.7715C20.2268 2.62052 20.5953 2.27729 20.5953 1.85323C20.5953 1.42915 20.2268 1.08594 19.7715 1.08594H15.566C15.1107 1.08594 14.7422 1.42917 14.7422 1.85323C14.7423 2.25701 15.1108 2.60026 15.566 2.62052Z" fill="#03565A"/>
<path d="M12.9655 1.06445H12.4019C11.9466 1.06445 11.5781 1.40768 11.5781 1.83174C11.5781 2.25583 11.9466 2.59904 12.4019 2.59904H12.9655C13.4208 2.59904 13.7893 2.25581 13.7893 1.83174C13.7893 1.40766 13.4208 1.06445 12.9655 1.06445Z" fill="#03565A"/>
<path d="M19.752 4.2959H15.5465C15.0911 4.2959 14.7227 4.63913 14.7227 5.06319C14.7227 5.48725 15.0912 5.83048 15.5465 5.83048H19.752C20.2073 5.83048 20.5758 5.48725 20.5758 5.06319C20.5974 4.63911 20.2289 4.2959 19.752 4.2959Z" fill="#03565A"/>
<path d="M12.9421 4.27539H12.3785C11.9232 4.27539 11.5547 4.61862 11.5547 5.04268C11.5547 5.46675 11.9232 5.80997 12.3785 5.80997H12.9421C13.3974 5.80997 13.7659 5.46675 13.7659 5.04268C13.7875 4.6389 13.3972 4.27539 12.9421 4.27539Z" fill="#03565A"/>
<path d="M19.7481 7.52734H15.5426C15.0872 7.52734 14.7188 7.87057 14.7188 8.29464C14.7188 8.7187 15.0873 9.06193 15.5426 9.06193H19.7481C20.2034 9.06193 20.5719 8.7187 20.5719 8.29464C20.5719 7.87057 20.2034 7.52734 19.7481 7.52734Z" fill="#03565A"/>
<path d="M12.9421 7.50586H12.3785C11.9232 7.50586 11.5547 7.84909 11.5547 8.27315C11.5547 8.69723 11.9232 9.04044 12.3785 9.04044H12.9421C13.3974 9.04044 13.7659 8.69721 13.7659 8.27315C13.7659 7.84907 13.3972 7.50586 12.9421 7.50586Z" fill="#03565A"/>
<path d="M19.752 10.7559H15.5465C15.0911 10.7559 14.7227 11.0991 14.7227 11.5232C14.7227 11.9472 15.0912 12.2904 15.5465 12.2904H19.752C20.2073 12.2904 20.5758 11.9472 20.5758 11.5232C20.5758 11.0991 20.2073 10.7559 19.752 10.7559Z" fill="#03565A"/>
<path d="M12.9225 10.7373H12.359C11.9036 10.7373 11.5352 11.0805 11.5352 11.5046C11.5352 11.9287 11.9037 12.2719 12.359 12.2719H12.9225C13.3779 12.2719 13.7464 11.9287 13.7464 11.5046C13.768 11.0805 13.3993 10.7373 12.9225 10.7373Z" fill="#03565A"/>
</svg>
