<svg width="36" height="36" viewBox="0 0 36 36" fill="none" xmlns="http://www.w3.org/2000/svg">
<path d="M18 0.000146859C13.2261 0.000146859 8.64801 1.89655 5.27206 5.27219C1.89648 8.64804 0 13.2267 0 18.0001C0 22.7734 1.89641 27.352 5.27206 30.728C8.64793 34.1035 13.2267 36 18 36C22.7733 36 27.352 34.1036 30.7279 30.728C34.1035 27.3521 36 22.7734 36 18.0001C36 14.8403 35.1683 11.7365 33.5884 9.00004C32.0085 6.26359 29.7364 3.99146 26.9999 2.41157C24.2635 0.831677 21.1596 0 17.9999 0L18 0.000146859ZM22.5 25.7145H16.7143C16.2548 25.7145 15.8304 25.4695 15.6008 25.0717C15.3712 24.6739 15.3712 24.1837 15.6008 23.786C15.8304 23.3882 16.2548 23.1431 16.7143 23.1431H22.5C23.6483 23.1431 24.7096 22.5304 25.2836 21.536C25.8579 20.5415 25.8579 19.3161 25.2836 18.3217C24.7096 17.3272 23.6483 16.7145 22.5 16.7145H12.0989L13.7574 18.373C14.0295 18.606 14.1919 18.9421 14.206 19.3C14.2197 19.6579 14.0834 20.0054 13.8303 20.2588C13.5769 20.512 13.2293 20.6483 12.8714 20.6345C12.5136 20.6204 12.1775 20.458 11.9445 20.1859L8.0873 16.3288C7.84393 16.0874 7.70703 15.7588 7.70703 15.4158C7.70703 15.0732 7.84393 14.7446 8.0873 14.5029L11.9445 10.6457C12.2757 10.3625 12.7277 10.2658 13.1456 10.3895C13.5635 10.5132 13.8903 10.84 14.0137 11.2579C14.1374 11.6757 14.0409 12.1278 13.7574 12.4587L12.0989 14.143H22.5C24.567 14.143 26.4772 15.2457 27.5106 17.0359C28.544 18.8261 28.544 21.0314 27.5106 22.8216C26.4772 24.6119 24.567 25.7145 22.5 25.7145Z" fill="#55BB8B"/>
</svg>
