<svg width="18" height="19" viewBox="0 0 18 19" fill="none" xmlns="http://www.w3.org/2000/svg">
<g id="Group">
<path id="Vector" d="M9.03263 0.950195C11.52 0.950195 13.7454 1.93207 15.3818 3.56835C17.0183 5.20475 18 7.49559 18 9.98282C18 12.4702 17.0181 14.6956 15.3818 16.332C13.7454 17.9685 11.5202 18.9502 9.03263 18.9502C6.5453 18.9502 4.25423 17.9683 2.61815 16.332C0.981746 14.6956 0 12.4704 0 9.98282C0 7.49527 0.981875 5.20443 2.61815 3.56835C4.25456 1.93194 6.54539 0.950195 9.03263 0.950195ZM14.4654 4.55022C13.0909 3.11018 11.1271 2.25929 9.03263 2.25929C6.87264 2.25929 4.97456 3.11021 3.5998 4.55022C2.15976 5.92472 1.30887 7.82303 1.30887 9.98305C1.30887 12.0776 2.15979 14.0411 3.5998 15.4159C4.9743 16.7904 6.87261 17.6414 9.03263 17.6414C11.1272 17.6414 13.0907 16.7905 14.4654 15.4159C15.84 14.0414 16.691 12.0775 16.691 9.98305C16.691 7.82306 15.84 5.92498 14.4654 4.55022Z" fill="#FF3535"/>
<path id="Vector_2" d="M11.5203 6.51372C11.7821 6.25194 12.1748 6.25194 12.4366 6.51372C12.6984 6.77551 12.6984 7.16825 12.4366 7.43006L9.88391 9.9828L12.4366 12.4701C12.6984 12.7319 12.6984 13.1901 12.4366 13.452C12.1749 13.7138 11.7821 13.7138 11.5203 13.452L8.96757 10.8993L6.54578 13.3211C6.28399 13.5828 5.82584 13.5828 5.56391 13.3211C5.36753 13.0593 5.36753 12.6665 5.56391 12.4047L8.05124 9.98293L5.56391 7.56114C5.36753 7.29935 5.36753 6.8412 5.56391 6.57926C5.8257 6.31748 6.28385 6.31748 6.54578 6.57926L8.96757 9.00105L11.5203 6.51372Z" fill="#FF3535"/>
</g>
</svg>
