<svg width="18" height="19" viewBox="0 0 18 19" fill="none" xmlns="http://www.w3.org/2000/svg">
<path id="Vector" fill-rule="evenodd" clip-rule="evenodd" d="M9.00228 0.950195C4.04032 0.950195 0 4.9902 0 9.95247C0 14.9147 4.04 18.9502 9.00228 18.9502C13.9645 18.9502 18 14.9145 18 9.95247C18 4.99052 13.9643 0.950195 9.00228 0.950195ZM9.00228 2.45035C13.1536 2.45035 16.5001 5.80109 16.5001 9.95224C16.5001 14.1036 13.1538 17.45 9.00228 17.45C4.85076 17.45 1.50038 14.1038 1.50038 9.95224C1.50038 5.80072 4.85112 2.45035 9.00228 2.45035ZM12.7349 6.33685H12.7351C12.5352 6.35144 12.3495 6.44535 12.2195 6.59761L7.81731 11.7071L5.7533 9.57565H5.75312C5.61367 9.43264 5.42317 9.35136 5.22342 9.3494C5.02384 9.34744 4.83174 9.42517 4.68961 9.56533C4.5482 9.70443 4.4678 9.89368 4.46549 10.0918C4.46335 10.29 4.53966 10.481 4.67787 10.6231L7.30893 13.3406V13.3405C7.4555 13.492 7.65916 13.5747 7.86974 13.5687C8.08051 13.5626 8.27884 13.468 8.41652 13.3083L13.3548 7.57176C13.4846 7.42128 13.5496 7.22527 13.535 7.02694C13.5204 6.82843 13.4277 6.64416 13.2771 6.51412C13.1269 6.38588 12.9322 6.3222 12.7351 6.33678L12.7349 6.33685Z" fill="#03565A"/>
</svg>
