<svg width="23" height="20" viewBox="0 0 23 20" fill="none" xmlns="http://www.w3.org/2000/svg">
<path fill-rule="evenodd" clip-rule="evenodd" d="M7.85559 15.8617C7.71428 15.8239 7.62964 15.6755 7.66709 15.533L7.83726 14.8941C7.8747 14.7506 8.02192 14.6652 8.16324 14.704L8.76531 14.8659C8.88355 14.6516 9.03166 14.4597 9.20197 14.2938L8.88945 13.7498C8.81636 13.6218 8.8606 13.4561 8.98756 13.3824L9.55588 13.0518C9.68284 12.9772 9.84634 13.0218 9.92035 13.1497L10.232 13.6946C10.4598 13.6287 10.6984 13.5957 10.9418 13.5996L11.1023 12.9926C11.1408 12.8501 11.2879 12.7648 11.4293 12.8025L12.0631 12.9741C12.2044 13.0118 12.29 13.1603 12.2516 13.3027L12.09 13.9107C12.3025 14.029 12.4929 14.1783 12.6583 14.3499L13.1978 14.0357C13.3248 13.9611 13.4892 14.0057 13.5623 14.1336L13.8902 14.7066C13.9642 14.8346 13.9199 14.9994 13.7931 15.074L13.2526 15.3882C13.318 15.6179 13.3507 15.8584 13.3458 16.1038L13.9488 16.2657C14.0901 16.3045 14.1747 16.4527 14.1373 16.5954L13.9671 17.2343C13.9297 17.3778 13.7825 17.4632 13.6401 17.4244L13.038 17.2615C12.9207 17.4757 12.7726 17.6677 12.6024 17.8345L12.914 18.3784C12.988 18.5064 12.9438 18.6721 12.8169 18.7458L12.2486 19.0764C12.1217 19.151 11.9573 19.1064 11.8842 18.9786L11.5725 18.4336C11.3447 18.4995 11.1061 18.5325 10.8628 18.5276L10.7012 19.1355C10.6637 19.278 10.5165 19.3633 10.3752 19.3256L9.74144 19.154C9.5991 19.1162 9.51446 18.9678 9.55293 18.8253L9.71348 18.2174C9.50099 18.0991 9.31058 17.9498 9.14604 17.7782L8.60551 18.0933C8.47959 18.167 8.31506 18.1224 8.24197 17.9944L7.91407 17.4214C7.84008 17.2934 7.88432 17.1286 8.01114 17.0539L8.55167 16.7398C8.48627 16.51 8.45356 16.2695 8.45741 16.0242L7.85534 15.8613L7.85559 15.8617ZM6.26968 10.1622L6.6476 10.7255L7.02552 10.1622L6.77161 8.2288H6.53797L6.26968 10.1622ZM9.27402 9.48341C9.27402 9.48341 9.27402 9.241 9.20003 8.65725C9.12604 8.0735 8.00756 7.83884 7.59015 7.67503C7.30738 7.56449 7.30072 7.31923 7.30072 7.31923C6.91022 7.80213 6.38897 7.806 5.99181 7.31535C5.99181 7.31535 6.02451 7.55001 5.70519 7.67503C5.28778 7.83884 4.16931 8.07349 4.09531 8.65725C4.02029 9.241 4.02029 9.48341 4.02029 9.48341H6.17543L6.35432 8.19387C6.36675 8.10466 6.44562 8.07467 6.5341 8.07467H6.78609C6.87457 8.07467 6.94382 8.1057 6.95536 8.19491L7.12463 9.48354H9.27402V9.48341ZM5.55027 5.70891C5.55027 6.22954 5.64734 6.52047 5.95318 7.02274C6.19362 7.332 6.42253 7.47357 6.64757 7.45417C6.87262 7.47356 7.10152 7.33199 7.34094 7.02274C7.64768 6.52044 7.7449 6.22954 7.7449 5.70891C7.7449 4.19828 5.55024 4.19921 5.55024 5.70891H5.55027ZM13.5486 10.202C13.3688 10.075 13.3246 9.82187 13.4505 9.63957L14.0161 8.82609C14.142 8.64482 14.3931 8.60022 14.5729 8.72718L15.3394 9.26827C15.6153 9.02779 15.9212 8.83296 16.2463 8.68647L16.0838 7.75767C16.0453 7.53852 16.1915 7.32816 16.4078 7.29029L17.3782 7.11769C17.5945 7.0789 17.8033 7.22629 17.8418 7.44441L18.0043 8.37426C18.3591 8.39948 18.7121 8.47705 19.0535 8.60789L19.5902 7.83512C19.7161 7.65385 19.9672 7.60925 20.148 7.73621L20.954 8.30639C21.1348 8.43335 21.179 8.68649 21.053 8.86777L20.5163 9.64156C20.7548 9.91889 20.9481 10.2272 21.0923 10.555L22.0146 10.3912C22.231 10.3524 22.4406 10.4998 22.4782 10.7179L22.6494 11.6963C22.6879 11.9144 22.5417 12.1248 22.3253 12.1636L21.4031 12.3274C21.378 12.6852 21.3011 13.0411 21.1703 13.3853L21.9378 13.9264C22.1176 14.0533 22.1618 14.3065 22.0359 14.4878L21.4704 15.3023C21.3444 15.4835 21.0934 15.5281 20.9125 15.4012L20.147 14.8601C19.871 15.1006 19.5652 15.2954 19.2401 15.4409L19.4026 16.3707C19.441 16.5888 19.2948 16.8002 19.0785 16.8381L18.1081 17.0107C17.8918 17.0495 17.683 16.9021 17.6446 16.684L17.4821 15.7541C17.1272 15.7289 16.7742 15.6513 16.4328 15.5205L15.8962 16.2933C15.7702 16.4745 15.5192 16.5191 15.3383 16.3922L14.5315 15.822C14.3517 15.695 14.3074 15.4419 14.4334 15.2606L14.9701 14.4868C14.7315 14.2095 14.5383 13.9011 14.393 13.5734L13.4718 13.7372C13.2544 13.776 13.0457 13.6286 13.0082 13.4105L12.837 12.4321C12.7985 12.214 12.9447 12.0035 13.161 11.9647L14.0833 11.8009C14.1083 11.4432 14.1853 11.0873 14.3151 10.7431L13.5486 10.202L13.5486 10.202ZM19.3967 13.231C18.7572 14.1522 17.4983 14.375 16.5856 13.7313C15.672 13.0866 15.4498 11.8173 16.0894 10.8972C16.7289 9.97598 17.9878 9.75204 18.9005 10.3968C19.8141 11.0416 20.0363 12.3108 19.3967 13.231ZM7.81577 13.5839C7.81577 13.8835 7.57251 14.1289 7.27525 14.1289H5.94517C5.64804 14.1289 5.40464 13.8836 5.40464 13.5839V12.3099C4.92669 12.1888 4.47569 11.9987 4.06405 11.7494L3.17062 12.6502C2.96095 12.8625 2.61664 12.8625 2.40608 12.6502L1.4656 11.702C1.25593 11.4906 1.25593 11.1435 1.4656 10.9312L2.35903 10.0304C2.11192 9.61541 1.9234 9.1616 1.80416 8.67973H0.540523C0.243398 8.67973 0 8.43446 0 8.13477V6.79377C0 6.4942 0.243267 6.24881 0.540523 6.24881H1.80416C1.92342 5.76693 2.11283 5.31223 2.36008 4.89721L1.46563 3.99645C1.25597 3.78415 1.25597 3.43792 1.46563 3.22563L2.40611 2.27743C2.61667 2.06514 2.96009 2.06514 3.17065 2.27743L4.06409 3.1782C4.47572 2.92906 4.92672 2.73899 5.40468 2.61878V1.34476C5.40468 1.0452 5.64794 0.799805 5.9452 0.799805H7.27528C7.57241 0.799805 7.81581 1.04507 7.81581 1.34476V2.61878C8.29376 2.73901 8.74387 2.92997 9.15551 3.17926L10.05 2.27747C10.2596 2.06517 10.6039 2.06517 10.8136 2.27747L11.7541 3.22566C11.9647 3.43796 11.9647 3.78419 11.7541 3.99648L10.8607 4.89725C11.1078 5.31226 11.2963 5.76696 11.4166 6.24884H12.6802C12.9773 6.24884 13.2207 6.4941 13.2207 6.7938V8.1348C13.2207 8.43436 12.9775 8.67976 12.6802 8.67976H11.4166C11.2964 9.16163 11.1079 9.61544 10.8607 10.0305L11.7551 10.9322C11.9648 11.1436 11.9648 11.4908 11.7551 11.7022L10.8146 12.6504C10.6041 12.8627 10.2598 12.8627 10.0501 12.6504L9.15564 11.7496C8.744 11.9987 8.29389 12.1888 7.81594 12.3101V13.5841L7.81577 13.5839ZM6.60985 3.86833C8.57943 3.86833 10.177 5.47785 10.177 7.46344C10.177 9.44902 8.57956 11.0599 6.60985 11.0599C4.64026 11.0599 3.044 9.44932 3.044 7.46344C3.044 5.47755 4.64042 3.86833 6.60985 3.86833ZM12.2002 16.4148C12.0089 17.1382 11.2713 17.5667 10.5538 17.3738C9.83634 17.1798 9.41033 16.4362 9.60267 15.7128C9.79501 14.9894 10.5326 14.5609 11.2501 14.7538C11.9676 14.9478 12.3926 15.6914 12.2002 16.4148Z" fill="#626464"/>
</svg>
