<svg width="21" height="14" viewBox="0 0 21 14" fill="none" xmlns="http://www.w3.org/2000/svg">
<path fill-rule="evenodd" clip-rule="evenodd" d="M6.04598 8.1259C6.04688 8.08653 6.04834 8.04715 6.05015 8.008C5.62389 8.16629 5.16278 8.2528 4.68151 8.2528C2.51041 8.2528 0.750399 6.49278 0.750399 4.32168C0.750399 2.15058 2.51041 0.390571 4.68151 0.390571C4.70075 0.390571 4.7201 0.390683 4.73934 0.391021C4.75374 0.391246 4.76802 0.391471 4.78231 0.391808V0.390571H10.7449V6.43728L8.29946 3.96132C8.09438 3.75365 7.76195 3.75365 7.55687 3.96132C7.35179 4.16887 7.35179 4.50557 7.55687 4.71324L10.8987 8.09688C11.1038 8.30455 11.4363 8.30455 11.6413 8.09688L14.9832 4.71324C15.1882 4.50557 15.1882 4.16887 14.9832 3.96132C14.7781 3.75365 14.4456 3.75365 14.2405 3.96132L11.7952 6.43728V0.390571H16.2735V0.391582C18.8433 0.445245 20.9102 2.54534 20.9102 5.12792C20.9102 7.71008 18.8443 9.80984 16.2752 9.86427C15.5953 11.9706 13.6186 13.4941 11.2863 13.4941C8.39136 13.4941 6.04479 11.1475 6.04479 8.25266C6.04479 8.21024 6.04524 8.16795 6.04625 8.12576L6.04598 8.1259Z" fill="#03565A"/>
</svg>
