<svg width="19" height="19" viewBox="0 0 19 19" fill="none" xmlns="http://www.w3.org/2000/svg">
<path fill-rule="evenodd" clip-rule="evenodd" d="M3.38087 3.48241C6.79489 0.0683909 12.3301 0.068391 15.7441 3.48241C19.1581 6.89643 19.1581 12.4316 15.7441 15.8456C12.3301 19.2596 6.7949 19.2597 3.38089 15.8457C-0.0331322 12.4316 -0.0330804 6.89636 3.38087 3.48241ZM14.8574 4.36912C11.9331 1.44482 7.19189 1.44482 4.26759 4.36913C1.34329 7.29343 1.3433 12.0346 4.2676 14.9589C7.19187 17.8832 11.9331 17.8832 14.8574 14.9589C17.7817 12.0346 17.7817 7.29339 14.8574 4.36912ZM13.956 9.66425C13.956 10.0287 13.6605 10.3242 13.296 10.3243L10.2225 10.3242L10.2225 13.3978C10.2225 13.7622 9.92697 14.0577 9.5625 14.0578C9.19801 14.0578 8.90251 13.7623 8.9025 13.3978L8.9025 10.3242L5.82898 10.3243C5.46448 10.3242 5.16898 10.0287 5.16897 9.66425C5.16897 9.29975 5.46447 9.00425 5.82898 9.00425L8.90251 9.00425L8.9025 5.93073C8.9025 5.56622 9.198 5.27072 9.5625 5.27072C9.927 5.27072 10.2225 5.56622 10.2225 5.93073L10.2225 9.00425L13.296 9.00425C13.6605 9.00425 13.956 9.29975 13.956 9.66425Z" fill="#03565A"/>
</svg>
