<svg width="17" height="16" viewBox="0 0 17 16" fill="none" xmlns="http://www.w3.org/2000/svg">
<g id="info">
<mask id="mask0_782_11002" style="mask-type:alpha" maskUnits="userSpaceOnUse" x="0" y="0" width="17" height="16">
<rect id="Bounding box" x="0.599609" width="16" height="16" fill="#D9D9D9"/>
</mask>
<g mask="url(#mask0_782_11002)">
<path id="info_2" d="M7.93359 11.334H9.26693V7.33398H7.93359V11.334ZM8.60026 6.00065C8.78915 6.00065 8.94748 5.93676 9.07526 5.80898C9.20304 5.68121 9.26693 5.52287 9.26693 5.33398C9.26693 5.1451 9.20304 4.98676 9.07526 4.85898C8.94748 4.73121 8.78915 4.66732 8.60026 4.66732C8.41137 4.66732 8.25304 4.73121 8.12526 4.85898C7.99748 4.98676 7.93359 5.1451 7.93359 5.33398C7.93359 5.52287 7.99748 5.68121 8.12526 5.80898C8.25304 5.93676 8.41137 6.00065 8.60026 6.00065ZM8.60026 14.6673C7.67804 14.6673 6.81137 14.4923 6.00026 14.1423C5.18915 13.7923 4.48359 13.3173 3.88359 12.7173C3.28359 12.1173 2.80859 11.4118 2.45859 10.6007C2.10859 9.78954 1.93359 8.92287 1.93359 8.00065C1.93359 7.07843 2.10859 6.21176 2.45859 5.40065C2.80859 4.58954 3.28359 3.88398 3.88359 3.28398C4.48359 2.68398 5.18915 2.20898 6.00026 1.85898C6.81137 1.50898 7.67804 1.33398 8.60026 1.33398C9.52248 1.33398 10.3891 1.50898 11.2003 1.85898C12.0114 2.20898 12.7169 2.68398 13.3169 3.28398C13.9169 3.88398 14.3919 4.58954 14.7419 5.40065C15.0919 6.21176 15.2669 7.07843 15.2669 8.00065C15.2669 8.92287 15.0919 9.78954 14.7419 10.6007C14.3919 11.4118 13.9169 12.1173 13.3169 12.7173C12.7169 13.3173 12.0114 13.7923 11.2003 14.1423C10.3891 14.4923 9.52248 14.6673 8.60026 14.6673ZM8.60026 13.334C10.0891 13.334 11.3503 12.8173 12.3836 11.784C13.4169 10.7507 13.9336 9.48954 13.9336 8.00065C13.9336 6.51176 13.4169 5.25065 12.3836 4.21732C11.3503 3.18398 10.0891 2.66732 8.60026 2.66732C7.11137 2.66732 5.85026 3.18398 4.81693 4.21732C3.78359 5.25065 3.26693 6.51176 3.26693 8.00065C3.26693 9.48954 3.78359 10.7507 4.81693 11.784C5.85026 12.8173 7.11137 13.334 8.60026 13.334Z" fill="#03565A"/>
</g>
</g>
</svg>
