<svg width="18" height="18" viewBox="0 0 18 18" fill="none" xmlns="http://www.w3.org/2000/svg">
<path d="M9.85135 5.47596C9.85135 5.47596 9.34754 4.52138 9.16193 4.15016C9.13542 4.09713 9.08238 4.07061 9.05587 4.01758H7.54446C7.38536 4.01758 7.2793 4.12364 7.2793 4.28274V9.90413C9.08238 9.50639 10.4612 7.5442 9.85135 5.47596Z" fill="#03565A"/>
<path d="M16.719 4.01758H15.4993C15.5523 4.12364 15.5523 4.22971 15.5523 4.30925V5.18428C15.5523 5.63505 15.2076 5.97976 14.7568 5.97976H11.5749C11.7075 7.49117 11.1771 8.97607 10.09 10.0897C9.32103 10.8587 8.33994 11.3625 7.2793 11.5216V16.7187C7.2793 16.8778 7.38536 16.9839 7.54446 16.9839H16.7455C16.8781 16.9839 17.0107 16.8778 17.0107 16.7187V4.28274C16.9841 4.15016 16.8781 4.01758 16.719 4.01758ZM11.018 15.6581H10.5142C10.3817 15.6581 10.2491 15.5255 10.2491 15.3929C10.2491 15.2338 10.3817 15.1278 10.5142 15.1278H11.018C11.1771 15.1278 11.2832 15.2338 11.2832 15.3929C11.2832 15.552 11.1771 15.6581 11.018 15.6581ZM11.018 13.802H10.5142C10.3817 13.802 10.2491 13.6694 10.2491 13.5368C10.2491 13.4042 10.3817 13.2717 10.5142 13.2717H11.018C11.1771 13.2717 11.2832 13.4042 11.2832 13.5368C11.2832 13.6694 11.1771 13.802 11.018 13.802ZM15.6053 15.6581H11.9991C11.8666 15.6581 11.734 15.5255 11.734 15.3929C11.734 15.2338 11.8666 15.1278 11.9991 15.1278H15.6053C15.7644 15.1278 15.8705 15.2338 15.8705 15.3929C15.8705 15.552 15.7379 15.6581 15.6053 15.6581ZM15.6053 13.802H11.9991C11.8666 13.802 11.734 13.6694 11.734 13.5368C11.734 13.4042 11.8666 13.2717 11.9991 13.2717H15.6053C15.7644 13.2717 15.8705 13.4042 15.8705 13.5368C15.8705 13.6694 15.7379 13.802 15.6053 13.802ZM15.6053 11.9724H11.9991C11.8666 11.9724 11.734 11.8398 11.734 11.7072C11.734 11.5481 11.8666 11.4421 11.9991 11.4421H15.6053C15.7644 11.4421 15.8705 11.5481 15.8705 11.7072C15.8705 11.8398 15.7379 11.9724 15.6053 11.9724ZM15.6053 10.1163H13.0333C12.8742 10.1163 12.7681 9.98367 12.7681 9.85109C12.7681 9.692 12.8742 9.58593 13.0333 9.58593H15.6053C15.7644 9.58593 15.8705 9.692 15.8705 9.85109C15.8705 10.0102 15.7379 10.1163 15.6053 10.1163ZM15.6053 8.26013H13.0333C12.8742 8.26013 12.7681 8.15407 12.7681 7.99497C12.7681 7.8624 12.8742 7.72982 13.0333 7.72982H15.6053C15.7644 7.72982 15.8705 7.8624 15.8705 7.99497C15.8705 8.15407 15.7379 8.26013 15.6053 8.26013Z" fill="#03565A"/>
<path d="M11.4947 5.44903H14.7561C14.8887 5.44903 15.0213 5.34297 15.0213 5.18387V4.33536C15.0213 4.30885 15.0213 4.25581 14.9948 4.2293L14.544 3.27472C14.4645 3.08911 14.2789 2.98305 14.0667 2.98305H13.7751V2.61182C13.7751 2.32015 13.5364 2.0815 13.2447 2.0815H10.9644C10.6727 2.0815 10.434 2.32015 10.434 2.61182V2.98305H10.2219C10.8583 3.64595 11.3091 4.49446 11.4947 5.44903ZM10.8848 5.18387C10.0098 2.16105 6.37709 0.835253 3.75201 2.7444C1.49815 4.33536 1.12693 7.67637 3.19518 9.71811C4.09672 10.6196 5.26342 11.0704 6.45664 11.0704C7.64986 11.0704 8.81656 10.6196 9.71811 9.71811C10.8848 8.52489 11.3356 6.77483 10.8848 5.18387ZM6.45664 10.5401C2.53228 10.5401 0.861769 5.44903 4.0702 3.16866C4.78613 2.63834 5.63465 2.37318 6.45664 2.37318C10.0363 2.37318 11.8924 6.74832 9.32037 9.32037C9.29385 9.34688 8.31276 10.5401 6.45664 10.5401ZM2.21408 3.5664C2.55879 3.08911 2.95653 2.63834 3.46034 2.29363C3.48685 2.26712 3.53988 2.2406 3.5664 2.21408L1.63073 0.278418C1.25951 -0.0928059 0.649641 -0.0928059 0.278418 0.278418C-0.0928059 0.649641 -0.0928059 1.25951 0.278418 1.63073L2.21408 3.5664ZM4.97175 12.0515C4.28233 11.9454 3.88459 10.9644 3.88459 10.9644C3.83156 10.8583 3.75201 10.8053 3.64595 10.8053H1.55118C1.44512 10.8053 1.33906 10.8848 1.31254 10.9644C1.31254 10.9644 0.914801 11.9189 0.225386 12.0515C0.0928059 12.078 0.013258 12.1841 0.013258 12.3167V13.2182C0.013258 15.1274 1.31254 16.0819 2.02847 16.6123C2.18757 16.7448 2.34666 16.8509 2.42621 16.9305C2.47924 16.9835 2.55879 17.01 2.61182 17.01C2.69137 17.01 2.7444 16.9835 2.79744 16.9305C2.87698 16.8509 3.00956 16.7448 3.16866 16.6388C3.88459 16.135 5.18387 15.1804 5.18387 13.2447V12.3432C5.21039 12.1841 5.10433 12.078 4.97175 12.0515ZM3.75201 13.0591L2.21408 14.597C2.16105 14.6501 2.0815 14.6766 2.02847 14.6766C1.94892 14.6766 1.89589 14.6501 1.84286 14.597L1.47164 14.1993C1.36557 14.0932 1.36557 13.9341 1.47164 13.8281C1.5777 13.722 1.7368 13.722 1.84286 13.8281L2.02847 14.0137L3.38079 12.6614C3.48685 12.5553 3.64595 12.5553 3.75201 12.6614C3.85808 12.794 3.85808 12.9531 3.75201 13.0591Z" fill="#03565A"/>
</svg>
