<svg width="18" height="18" viewBox="0 0 18 18" fill="none" xmlns="http://www.w3.org/2000/svg">
<path d="M10.1191 6.32557C10.1191 6.32557 9.61446 5.37099 9.42856 4.99977C9.402 4.94674 9.34888 4.92022 9.32233 4.86719H7.80854C7.6492 4.86719 7.54297 4.97325 7.54297 5.13235V10.7537C9.34888 10.356 10.7299 8.39381 10.1191 6.32557Z" fill="#626464"/>
<path d="M16.9975 4.86719H15.7758C15.8289 4.97325 15.8289 5.07932 15.8289 5.15886V6.03389C15.8289 6.48466 15.4837 6.82937 15.0322 6.82937H11.8453C11.9781 8.34078 11.4469 9.82568 10.3581 10.9393C9.5879 11.7083 8.60527 12.2121 7.54297 12.3712V17.5683C7.54297 17.7274 7.6492 17.8335 7.80854 17.8335H17.024C17.1568 17.8335 17.2896 17.7274 17.2896 17.5683V5.13235C17.263 4.99977 17.1568 4.86719 16.9975 4.86719ZM11.2876 16.5077H10.783C10.6502 16.5077 10.5174 16.3751 10.5174 16.2425C10.5174 16.0834 10.6502 15.9774 10.783 15.9774H11.2876C11.4469 15.9774 11.5532 16.0834 11.5532 16.2425C11.5532 16.4016 11.4469 16.5077 11.2876 16.5077ZM11.2876 14.6516H10.783C10.6502 14.6516 10.5174 14.519 10.5174 14.3864C10.5174 14.2538 10.6502 14.1213 10.783 14.1213H11.2876C11.4469 14.1213 11.5532 14.2538 11.5532 14.3864C11.5532 14.519 11.4469 14.6516 11.2876 14.6516ZM15.882 16.5077H12.2702C12.1374 16.5077 12.0046 16.3751 12.0046 16.2425C12.0046 16.0834 12.1374 15.9774 12.2702 15.9774H15.882C16.0414 15.9774 16.1476 16.0834 16.1476 16.2425C16.1476 16.4016 16.0148 16.5077 15.882 16.5077ZM15.882 14.6516H12.2702C12.1374 14.6516 12.0046 14.519 12.0046 14.3864C12.0046 14.2538 12.1374 14.1213 12.2702 14.1213H15.882C16.0414 14.1213 16.1476 14.2538 16.1476 14.3864C16.1476 14.519 16.0148 14.6516 15.882 14.6516ZM15.882 12.822H12.2702C12.1374 12.822 12.0046 12.6894 12.0046 12.5568C12.0046 12.3977 12.1374 12.2917 12.2702 12.2917H15.882C16.0414 12.2917 16.1476 12.3977 16.1476 12.5568C16.1476 12.6894 16.0148 12.822 15.882 12.822ZM15.882 10.9659H13.306C13.1466 10.9659 13.0404 10.8333 13.0404 10.7007C13.0404 10.5416 13.1466 10.4355 13.306 10.4355H15.882C16.0414 10.4355 16.1476 10.5416 16.1476 10.7007C16.1476 10.8598 16.0148 10.9659 15.882 10.9659ZM15.882 9.10974H13.306C13.1466 9.10974 13.0404 9.00368 13.0404 8.84458C13.0404 8.712 13.1466 8.57942 13.306 8.57942H15.882C16.0414 8.57942 16.1476 8.712 16.1476 8.84458C16.1476 9.00368 16.0148 9.10974 15.882 9.10974Z" fill="#626464"/>
<path d="M11.7666 6.29864H15.0332C15.166 6.29864 15.2988 6.19258 15.2988 6.03348V5.18497C15.2988 5.15846 15.2988 5.10542 15.2722 5.07891L14.8207 4.12433C14.7411 3.93872 14.5552 3.83266 14.3427 3.83266H14.0506V3.46143C14.0506 3.16976 13.8115 2.93111 13.5194 2.93111H11.2355C10.9433 2.93111 10.7043 3.16976 10.7043 3.46143V3.83266H10.4918C11.1292 4.49556 11.5807 5.34407 11.7666 6.29864ZM11.1558 6.03348C10.2794 3.01066 6.641 1.68486 4.0118 3.59401C1.75441 5.18497 1.3826 8.52598 3.45409 10.5677C4.35705 11.4693 5.52558 11.92 6.72067 11.92C7.91576 11.92 9.08429 11.4693 9.98725 10.5677C11.1558 9.3745 11.6073 7.62444 11.1558 6.03348ZM6.72067 11.3897C2.79015 11.3897 1.11703 6.29864 4.33049 4.01827C5.04755 3.48795 5.89739 3.22279 6.72067 3.22279C10.3059 3.22279 12.165 7.59793 9.58889 10.17C9.56233 10.1965 8.5797 11.3897 6.72067 11.3897ZM2.47146 4.41601C2.81671 3.93872 3.21507 3.48795 3.71967 3.14324C3.74623 3.11673 3.79934 3.09021 3.8259 3.06369L1.8872 1.12803C1.51539 0.756803 0.904566 0.756803 0.532761 1.12803C0.160955 1.49925 0.160955 2.10912 0.532761 2.48034L2.47146 4.41601ZM5.23345 12.9011C4.54295 12.7951 4.14459 11.814 4.14459 11.814C4.09147 11.7079 4.0118 11.6549 3.90557 11.6549H1.80752C1.70129 11.6549 1.59506 11.7344 1.56851 11.814C1.56851 11.814 1.17014 12.7685 0.479645 12.9011C0.346858 12.9276 0.267185 13.0337 0.267185 13.1663V14.0678C0.267185 15.977 1.56851 16.9316 2.28556 17.4619C2.44491 17.5944 2.60425 17.7005 2.68392 17.7801C2.73704 17.8331 2.81671 17.8596 2.86983 17.8596C2.9495 17.8596 3.00261 17.8331 3.05573 17.7801C3.1354 17.7005 3.26819 17.5944 3.42753 17.4884C4.14459 16.9846 5.44591 16.03 5.44591 14.0943V13.1928C5.47247 13.0337 5.36624 12.9276 5.23345 12.9011ZM4.0118 13.9087L2.47146 15.4467C2.41835 15.4997 2.33867 15.5262 2.28556 15.5262C2.20589 15.5262 2.15277 15.4997 2.09966 15.4467L1.72785 15.0489C1.62162 14.9429 1.62162 14.7838 1.72785 14.6777C1.83408 14.5716 1.99343 14.5716 2.09966 14.6777L2.28556 14.8633L3.64 13.511C3.74623 13.4049 3.90557 13.4049 4.0118 13.511C4.11803 13.6436 4.11803 13.8027 4.0118 13.9087Z" fill="#626464"/>
</svg>
