<svg width="14" height="19" viewBox="0 0 14 19" fill="none" xmlns="http://www.w3.org/2000/svg">
<path d="M1.09416 4.84478H3.23198C3.2508 4.84478 3.26898 4.84184 3.28764 4.84029L5.7992 7.74904C6.18139 8.14072 6.80735 8.18489 7.2447 7.86797V8.69351C6.37079 8.75042 5.68026 9.44494 5.68026 10.2942C5.68026 10.9623 6.10772 11.5353 6.71566 11.7767V11.733C6.71566 11.3933 7.00501 11.1169 7.36045 11.1169C7.71553 11.1169 8.0049 11.3932 8.0049 11.733V11.7767C8.61284 11.5353 9.0403 10.9625 9.0403 10.2942C9.0403 9.44479 8.34977 8.7504 7.47619 8.69351V7.84594C7.63653 7.98999 7.83988 8.0776 8.06253 8.0776C8.57861 8.0776 8.99664 7.61459 8.99664 7.04306L8.99631 3.7882L10.3586 4.79099C10.8426 5.12622 11.4957 5.05459 11.817 4.63065C12.1385 4.20703 12.0066 3.59159 11.5223 3.25636L10.2031 2.28538H12.2687C12.8668 2.28538 13.3514 1.8968 13.3514 1.41784C13.3514 0.938873 12.867 0.550137 12.2688 0.550137H8.05772C7.4868 0.208849 6.65572 0 5.56253 0C4.65841 0 3.81533 0.159091 3.12496 0.420849H1.09409C0.541488 0.420849 0.09375 1.12901 0.09375 2.00247V3.26311C0.09375 4.13688 0.54182 4.84489 1.09409 4.84489L1.09416 4.84478ZM7.36049 9.63521C7.42395 9.63521 7.47604 9.58544 7.47604 9.52403V9.36959C7.6393 9.41735 7.75923 9.56094 7.75923 9.73259C7.75923 9.94269 7.58007 10.1134 7.36049 10.1134C7.14043 10.1134 6.96126 9.94254 6.96126 9.73259C6.96126 9.56094 7.08103 9.41735 7.24462 9.36959V9.52403C7.24462 9.58544 7.29655 9.63521 7.36049 9.63521ZM6.25093 3.15377C6.69464 3.15377 7.12776 3.55941 7.12776 3.98288V6.04271L5.46755 4.11967C5.46203 4.06804 5.457 4.00446 5.44678 3.92228C5.39517 3.50143 5.80771 3.15382 6.25089 3.15382L6.25093 3.15377Z" fill="#626464"/>
<path d="M12.3671 12.6972H10.0608C9.56485 12.6972 9.14811 13.2272 9.02185 13.948L9.31056 13.9963L7.67553 13.9465C7.78183 13.8604 7.8508 13.7338 7.8508 13.5906L7.85064 11.9823C7.85064 11.7238 7.63106 11.5137 7.36086 11.5137C7.09049 11.5137 6.87058 11.7238 6.87058 11.9823V13.5906C6.87058 13.7227 6.92851 13.8414 7.02069 13.9265L6.39718 13.9076C6.1492 13.9147 5.92621 14.0122 5.7602 14.1654C5.67694 14.2475 5.60684 14.3422 5.55263 14.4455C5.49421 14.5675 5.46207 14.7032 5.46564 14.8463C5.47781 15.3405 5.90819 15.7421 6.42543 15.7421L6.45448 15.7419L6.46081 15.7421L8.84175 15.9015L10.0737 15.8384L8.99996 15.9958L6.44976 16.1389L6.42525 16.139C5.68441 16.139 5.06787 15.5633 5.05051 14.8554C5.04613 14.6731 5.08102 14.498 5.14804 14.3383L2.93998 13.5482C2.33578 13.3319 1.71778 13.4846 1.55941 13.8882C1.52955 13.9645 1.51852 14.0439 1.52355 14.1245L1.39112 14.0861C0.769389 13.9214 0.158044 14.1588 0.0254718 14.6161C-0.105331 15.0676 0.280425 15.5644 0.889165 15.7351C0.871313 15.7699 0.855247 15.806 0.844051 15.8444C0.715845 16.2862 1.11621 16.7776 1.73795 16.9421L4.12632 17.633C4.72583 18.1545 5.74482 18.4908 7.18429 18.4908C8.70541 18.4908 10.0678 18.0742 10.8908 17.4694H12.3673C12.963 17.4694 13.4463 16.7055 13.4463 15.7632V14.4031C13.4462 13.4607 12.9627 12.6972 12.3671 12.6972Z" fill="#626464"/>
</svg>
