<svg width="14" height="19" viewBox="0 0 14 19" fill="none" xmlns="http://www.w3.org/2000/svg">
<path d="M1.09413 4.84478H3.23187C3.25069 4.84478 3.26887 4.84184 3.28753 4.84029L5.799 7.74904C6.18117 8.14072 6.80711 8.18489 7.24444 7.86797V8.69351C6.37056 8.75042 5.68006 9.44494 5.68006 10.2942C5.68006 10.9623 6.10751 11.5353 6.71542 11.7767V11.733C6.71542 11.3933 7.00477 11.1169 7.36019 11.1169C7.71526 11.1169 8.00462 11.3932 8.00462 11.733V11.7767C8.61254 11.5353 9.03999 10.9625 9.03999 10.2942C9.03999 9.44479 8.34948 8.7504 7.47593 8.69351V7.84594C7.63627 7.98999 7.8396 8.0776 8.06224 8.0776C8.57831 8.0776 8.99632 7.61459 8.99632 7.04306L8.996 3.7882L10.3582 4.79099C10.8423 5.12622 11.4953 5.05459 11.8166 4.63065C12.1381 4.20703 12.0061 3.59159 11.5219 3.25636L10.2027 2.28538H12.2682C12.8664 2.28538 13.351 1.8968 13.351 1.41784C13.351 0.938873 12.8666 0.550137 12.2684 0.550137H8.05744C7.48654 0.208849 6.65549 0 5.56234 0C4.65825 0 3.8152 0.159091 3.12486 0.420849H1.09405C0.541472 0.420849 0.09375 1.12901 0.09375 2.00247V3.26311C0.09375 4.13688 0.541804 4.84489 1.09405 4.84489L1.09413 4.84478ZM7.36024 9.63521C7.42369 9.63521 7.47578 9.58544 7.47578 9.52403V9.36959C7.63904 9.41735 7.75896 9.56094 7.75896 9.73259C7.75896 9.94269 7.5798 10.1134 7.36023 10.1134C7.14018 10.1134 6.96102 9.94254 6.96102 9.73259C6.96102 9.56094 7.08078 9.41735 7.24436 9.36959V9.52403C7.24436 9.58544 7.2963 9.63521 7.36024 9.63521ZM6.25072 3.15377C6.69441 3.15377 7.12751 3.55941 7.12751 3.98288V6.04271L5.46736 4.11967C5.46184 4.06804 5.45681 4.00446 5.44659 3.92228C5.39498 3.50143 5.8075 3.15382 6.25068 3.15382L6.25072 3.15377Z" fill="#03565A"/>
<path d="M12.3667 12.6972H10.0605C9.56451 12.6972 9.14778 13.2272 9.02153 13.948L9.31023 13.9963L7.67526 13.9465C7.78155 13.8604 7.85052 13.7338 7.85052 13.5906L7.85036 11.9823C7.85036 11.7238 7.63079 11.5137 7.3606 11.5137C7.09023 11.5137 6.87033 11.7238 6.87033 11.9823V13.5906C6.87033 13.7227 6.92827 13.8414 7.02044 13.9265L6.39695 13.9076C6.14898 13.9147 5.926 14.0122 5.75999 14.1654C5.67674 14.2475 5.60664 14.3422 5.55243 14.4455C5.49402 14.5675 5.46188 14.7032 5.46545 14.8463C5.47762 15.3405 5.90798 15.7421 6.4252 15.7421L6.45425 15.7419L6.46058 15.7421L8.84144 15.9015L10.0733 15.8384L8.99964 15.9958L6.44953 16.1389L6.42503 16.139C5.68421 16.139 5.06769 15.5633 5.05033 14.8554C5.04595 14.6731 5.08084 14.498 5.14786 14.3383L2.93987 13.5482C2.33569 13.3319 1.71772 13.4846 1.55936 13.8882C1.5295 13.9645 1.51846 14.0439 1.52349 14.1245L1.39107 14.0861C0.769361 13.9214 0.158038 14.1588 0.0254709 14.6161C-0.105327 15.0676 0.280415 15.5644 0.889133 15.7351C0.871282 15.7699 0.855216 15.806 0.844021 15.8444C0.715819 16.2862 1.11617 16.7776 1.73789 16.9421L4.12618 17.633C4.72566 18.1545 5.74462 18.4908 7.18404 18.4908C8.7051 18.4908 10.0675 18.0742 10.8904 17.4694H12.3668C12.9626 17.4694 13.4459 16.7055 13.4459 15.7632V14.4031C13.4457 13.4607 12.9622 12.6972 12.3667 12.6972Z" fill="#03565A"/>
</svg>
