<svg width="18" height="18" viewBox="0 0 18 18" fill="none" xmlns="http://www.w3.org/2000/svg">
<path fill-rule="evenodd" clip-rule="evenodd" d="M0 8.74214C0 3.91399 3.91399 0 8.74214 0C13.5703 0 17.4842 3.91399 17.4842 8.74214C17.4842 13.5702 13.5703 17.4843 8.74214 17.4843C3.91399 17.4843 0 13.5702 0 8.74214ZM8.74214 1.25399C4.60656 1.25399 1.25401 4.60656 1.25401 8.74214C1.25401 12.8777 4.60656 16.2303 8.74214 16.2303C12.8777 16.2303 16.2302 12.8777 16.2302 8.74214C16.2302 4.60656 12.8777 1.25399 8.74214 1.25399Z" fill="#03565A"/>
<path d="M5.44531 6.72852L9.00326 9.25709L12.5612 6.72852" stroke="#03565A" stroke-width="0.72" stroke-linecap="round" stroke-linejoin="round"/>
<path d="M12.1159 6H5.88949C5.39824 6 5 6.38376 5 6.85714V11.1429C5 11.6162 5.39824 12 5.88949 12H12.1159C12.6072 12 13.0054 11.6162 13.0054 11.1429V6.85714C13.0054 6.38376 12.6072 6 12.1159 6Z" stroke="#03565A" stroke-width="0.9" stroke-linecap="round" stroke-linejoin="round"/>
</svg>
