<svg width="15" height="19" viewBox="0 0 15 19" fill="none" xmlns="http://www.w3.org/2000/svg">
<path d="M5.04712 3.52936H9.95215C10.2299 3.52936 10.5006 3.44206 10.726 3.27957C10.9513 3.11723 11.1199 2.88811 11.2077 2.62461L11.5015 1.7423V1.74215C11.6361 1.33859 11.5685 0.894863 11.3197 0.549646C11.071 0.204581 10.6714 0 10.2459 0H4.75325C4.32783 0 3.92827 0.204589 3.67949 0.549646C3.43073 0.894859 3.36308 1.33859 3.49765 1.74215L3.79145 2.62446V2.62461C3.87935 2.88814 4.04789 3.11723 4.27315 3.27957C4.49856 3.44206 4.76932 3.52936 5.04704 3.52936H5.04712Z" fill="#03565A"/>
<path d="M3.52734 7.94141H4.85134V9.26494H3.52734V7.94141Z" fill="#03565A"/>
<path d="M12.7939 1.32324H12.4542C12.4531 1.56018 12.4144 1.79548 12.3396 2.02033L12.044 2.90264C11.8985 3.34224 11.6179 3.72467 11.2426 3.99558C10.8671 4.26649 10.4157 4.412 9.95278 4.41155H5.04699C4.58406 4.41199 4.13262 4.26649 3.75715 3.99558C3.3818 3.72467 3.10128 3.34224 2.9558 2.90264L2.66022 2.02033C2.58533 1.79551 2.54663 1.56019 2.5456 1.32324H2.20585C1.62073 1.32324 1.0597 1.5556 0.646114 1.96936C0.232375 2.38298 0 2.94412 0 3.52909V16.3235C0 16.9085 0.232357 17.4697 0.646114 17.8833C1.05974 18.297 1.62073 18.5294 2.20585 18.5294H12.7942C13.3793 18.5294 13.9403 18.297 14.3539 17.8833C14.7676 17.4697 15 16.9085 15 16.3235V3.52909C15 2.94412 14.7676 2.38294 14.3539 1.96936C13.9403 1.55562 13.3793 1.32324 12.7942 1.32324H12.7939ZM7.05847 7.0587H11.0291C11.2728 7.0587 11.4703 7.2562 11.4703 7.49978C11.4703 7.74351 11.2728 7.94101 11.0291 7.94101H7.05847C6.81488 7.94101 6.61739 7.74351 6.61739 7.49978C6.61739 7.2562 6.81489 7.0587 7.05847 7.0587ZM5.64674 13.0585L4.3232 14.8233C4.24669 14.9259 4.12925 14.9903 4.00163 14.9998H3.97031C3.85332 14.9996 3.74106 14.9532 3.65834 14.8705L2.77603 13.9882V13.9881C2.60881 13.8149 2.61117 13.5399 2.78134 13.3696C2.95151 13.1994 3.2267 13.1971 3.39981 13.3643L3.92257 13.887L4.94079 12.5291C5.08703 12.3343 5.36357 12.2947 5.55854 12.4409C5.75338 12.5871 5.79298 12.8637 5.64674 13.0585ZM5.73493 9.26447C5.73493 9.49846 5.64202 9.72298 5.47657 9.88843C5.31113 10.0539 5.08662 10.1468 4.85262 10.1468H3.52908C3.2951 10.1468 3.07057 10.0539 2.90513 9.88843C2.73969 9.72298 2.64677 9.49847 2.64677 9.26447V7.94093C2.64677 7.70695 2.73969 7.48242 2.90513 7.31698C3.07057 7.15154 3.29508 7.05863 3.52908 7.05863H4.85262C5.0866 7.05863 5.31113 7.15154 5.47657 7.31698C5.64202 7.48242 5.73493 7.70693 5.73493 7.94093V9.26447ZM11.9117 14.9999H7.05847C6.81488 14.9999 6.61739 14.8023 6.61739 14.5587C6.61739 14.3151 6.81489 14.1175 7.05847 14.1175H11.9117C12.1553 14.1175 12.3528 14.3151 12.3528 14.5587C12.3528 14.8023 12.1553 14.9999 11.9117 14.9999ZM6.61754 12.7939C6.61754 12.5503 6.81504 12.3529 7.05862 12.3529H11.0292C11.273 12.3529 11.4705 12.5504 11.4705 12.7939C11.4705 13.0377 11.273 13.2352 11.0292 13.2352H7.05862C6.81504 13.2352 6.61754 13.0377 6.61754 12.7939ZM11.9117 9.70563L7.05847 9.70577C6.81488 9.70577 6.61739 9.50813 6.61739 9.26454C6.61739 9.02096 6.81489 8.82331 7.05847 8.82331H11.9117C12.1553 8.82331 12.3528 9.02096 12.3528 9.26454C12.3528 9.50813 12.1553 9.70577 11.9117 9.70577V9.70563Z" fill="#03565A"/>
</svg>
