<svg width="15" height="15" viewBox="0 0 15 15" fill="none" xmlns="http://www.w3.org/2000/svg">
<path d="M12.2637 9.00473V5.30102C12.2635 5.18719 12.2105 5.0799 12.1198 5.00989L7.28714 1.33169C7.22185 1.28198 7.13178 1.2096 7.05935 1.16406C6.92928 1.25513 6.89709 1.28198 6.8318 1.33169L1.99914 5.00989C1.90978 5.08066 1.85762 5.18776 1.85743 5.30102V12.6555C1.85685 12.7528 1.89549 12.8464 1.96482 12.9153C2.03414 12.9843 2.12849 13.0231 2.22677 13.0231H9.25876C9.52838 13.6556 10.0158 14.1733 10.6345 14.4842C11.2531 14.795 11.9632 14.8791 12.6385 14.7214C13.3138 14.5637 13.9109 14.1745 14.3237 13.6227C14.7366 13.071 14.9386 12.3923 14.8939 11.7072C14.8492 11.0221 14.5608 10.3749 14.0797 9.88018C13.5985 9.38557 12.9559 9.07545 12.2657 9.00488L12.2637 9.00473ZM9.02264 11.8925C9.02321 12.0246 9.03261 12.1567 9.05054 12.2877H2.59858V5.47716L7.05935 2.07726L11.5226 5.47716V9.02375C10.8281 9.12734 10.1941 9.47368 9.7354 9.99988C9.27678 10.5261 9.02386 11.1975 9.02251 11.8924L9.02264 11.8925ZM13.3182 12.3175H12.3947V13.2482C12.3947 13.3999 12.3128 13.5402 12.1799 13.6162C12.047 13.6921 11.8832 13.6921 11.7503 13.6162C11.6174 13.5402 11.5356 13.3999 11.5356 13.2482V12.3175H10.597C10.4435 12.3175 10.3017 12.2364 10.2249 12.105C10.1482 11.9734 10.1482 11.8114 10.2249 11.68C10.3017 11.5484 10.4435 11.4675 10.597 11.4675H11.5356V10.541C11.5356 10.3892 11.6174 10.2489 11.7503 10.1729C11.8832 10.097 12.047 10.097 12.1799 10.1729C12.3128 10.2489 12.3947 10.3892 12.3947 10.541V11.4674H13.3333V11.4675C13.4867 11.4675 13.6285 11.5484 13.7053 11.68C13.782 11.8114 13.782 11.9734 13.7053 12.105C13.6285 12.2364 13.4867 12.3174 13.3333 12.3174L13.3182 12.3175Z" fill="#03565A"/>
<path d="M7.15396 0.45242C7.07533 0.381745 6.95548 0.381745 6.87666 0.45242L0.567575 5.24276C0.483293 5.31856 0.476965 5.44757 0.553576 5.53095C0.630283 5.61415 0.760684 5.6206 0.844865 5.5448L7.01551 0.879042L13.4035 5.69516C13.4429 5.73064 13.4926 5.74819 13.542 5.74819C13.5981 5.74819 13.654 5.72561 13.6948 5.68141C13.7714 5.59802 13.7651 5.46882 13.6808 5.39321L7.15396 0.45242Z" fill="#03565A"/>
<path d="M5.65039 8.36216V11.9661C5.65039 12.0787 5.74263 12.17 5.85654 12.17H8.26206C8.37597 12.17 8.46821 12.0787 8.46821 11.9661V8.36216C8.46821 8.24956 8.37597 8.1582 8.26206 8.1582H5.85654C5.74263 8.15811 5.65039 8.24956 5.65039 8.36216ZM6.06269 8.56611H8.05582V11.762H6.06269V8.56611Z" fill="#03565A"/>
<path d="M3.58136 7.64783H4.8462C4.91382 7.64783 4.96857 7.59359 4.96857 7.52675V6.27537C4.96857 6.20853 4.91382 6.1543 4.8462 6.1543H3.58136C3.51374 6.1543 3.45898 6.20853 3.45898 6.27537V7.52675C3.45893 7.59354 3.51368 7.64783 3.58136 7.64783ZM3.70374 6.39645H4.72376V7.40561H3.70374V6.39645Z" fill="#03565A"/>
<path d="M9.3255 7.64783H10.5903C10.658 7.64783 10.7127 7.59359 10.7127 7.52675V6.27537C10.7127 6.20853 10.658 6.1543 10.5903 6.1543H9.3255C9.25788 6.1543 9.20313 6.20853 9.20313 6.27537V7.52675C9.20307 7.59354 9.25783 7.64783 9.3255 7.64783ZM9.44788 6.39645H10.4679V7.40561H9.44788V6.39645Z" fill="#03565A"/>
<path d="M6.16602 3.8677C6.16602 4.35379 6.56555 4.74908 7.05687 4.74908C7.54819 4.74908 7.94772 4.35379 7.94772 3.8677C7.94772 3.38171 7.54819 2.98633 7.05687 2.98633C6.56555 2.98633 6.16602 3.38171 6.16602 3.8677ZM7.57492 3.8677C7.57492 4.15031 7.34249 4.38024 7.05687 4.38024C6.77125 4.38024 6.53882 4.15039 6.53882 3.8677C6.53882 3.585 6.77125 3.35517 7.05687 3.35517C7.34249 3.35517 7.57492 3.58512 7.57492 3.8677Z" fill="#03565A"/>
<path d="M3.60547 6.88477H4.79289" stroke="#03565A" stroke-width="0.09"/>
<path d="M4.19336 6.26465V7.50318" stroke="#03565A" stroke-width="0.09"/>
<path d="M9.36719 6.90234H10.5546" stroke="#03565A" stroke-width="0.09"/>
<path d="M9.95703 6.2832V7.52174" stroke="#03565A" stroke-width="0.09"/>
</svg>
