<svg width="17" height="18" viewBox="0 0 17 18" fill="none" xmlns="http://www.w3.org/2000/svg">
<path d="M12.7001 7.93129C12.6347 7.87903 12.5534 7.85055 12.4696 7.85055C12.3858 7.85055 12.3045 7.87903 12.2391 7.93129L8.94337 10.5776C8.90107 10.6116 8.86697 10.6547 8.84359 10.7036C8.82022 10.7525 8.80816 10.806 8.80831 10.8601V17.6297C8.80831 17.7279 8.84744 17.8221 8.91709 17.8915C8.98675 17.961 9.08122 18 9.17973 18H11.373C11.4715 18 11.566 17.961 11.6356 17.8915C11.7053 17.8221 11.7444 17.7279 11.7444 17.6297V15.0726H13.2125V17.6297C13.2125 17.7279 13.2516 17.8221 13.3212 17.8915C13.3909 17.961 13.4854 18 13.5839 18H15.7771C15.8757 18 15.9701 17.961 16.0398 17.8915C16.1094 17.8221 16.1486 17.7279 16.1486 17.6297V10.8572C16.1496 10.8011 16.1377 10.7456 16.1138 10.6948C16.0898 10.644 16.0545 10.5995 16.0106 10.5645L12.7001 7.93129ZM11.7444 13.6089H10.2764V12.1452H11.7444V13.6089ZM14.6805 13.6089H13.2125V12.1452H14.6805V13.6089ZM5.44647 0.16496C5.41273 0.114237 5.36691 0.072629 5.31312 0.043846C5.25933 0.0150631 5.19923 0 5.13818 0C5.07713 0 5.01703 0.0150631 4.96324 0.043846C4.90945 0.072629 4.86364 0.114237 4.82989 0.16496L0.0616611 6.19682C0.0212553 6.25755 -0.000200205 6.32886 2.92462e-06 6.40174V17.6297C-0.000190246 17.6781 0.00918749 17.7261 0.0276009 17.771C0.0460143 17.8158 0.0731026 17.8565 0.107319 17.8909C0.141536 17.9253 0.182211 17.9527 0.227022 17.9714C0.271832 17.9901 0.319901 17.9998 0.368484 18H4.03861C4.13596 17.9988 4.22893 17.9595 4.29736 17.8904C4.36579 17.8214 4.40416 17.7282 4.40416 17.6312V15.0726H5.87221V17.6312C5.87221 17.729 5.91118 17.8228 5.98056 17.892C6.04994 17.9611 6.14404 18 6.24216 18H7.34026V9.21787C7.34019 9.10794 7.36497 8.9994 7.41275 8.90032C7.46053 8.80124 7.53009 8.71417 7.61625 8.64557L10.2764 6.2905C10.2764 6.21731 5.44647 0.16496 5.44647 0.16496ZM2.9361 12.1452H1.46805V10.6816H2.9361V12.1452ZM2.9361 7.75418H1.46805V6.2905H2.9361V7.75418ZM5.87221 12.1452H4.40416V10.6816H5.87221V12.1452ZM5.87221 7.75418H4.40416V6.2905H5.87221V7.75418Z" fill="#03565A"/>
</svg>
