<svg width="17" height="18" viewBox="0 0 17 18" fill="none" xmlns="http://www.w3.org/2000/svg">
<path d="M12.6975 7.93129C12.6322 7.87903 12.5509 7.85055 12.4671 7.85055C12.3833 7.85055 12.302 7.87903 12.2366 7.93129L8.94155 10.5776C8.89926 10.6116 8.86516 10.6547 8.84179 10.7036C8.81842 10.7525 8.80636 10.806 8.80651 10.8601V17.6297C8.80651 17.7279 8.84564 17.8221 8.91528 17.8915C8.98492 17.961 9.07937 18 9.17786 18H11.3707C11.4692 18 11.5636 17.961 11.6333 17.8915C11.7029 17.8221 11.742 17.7279 11.742 17.6297V15.0726H13.2098V17.6297C13.2098 17.7279 13.2489 17.8221 13.3185 17.8915C13.3882 17.961 13.4826 18 13.5811 18H15.7739C15.8724 18 15.9669 17.961 16.0365 17.8915C16.1061 17.8221 16.1453 17.7279 16.1453 17.6297V10.8572C16.1463 10.8011 16.1344 10.7456 16.1105 10.6948C16.0866 10.644 16.0513 10.5995 16.0073 10.5645L12.6975 7.93129ZM11.742 13.6089H10.2743V12.1452H11.742V13.6089ZM14.6775 13.6089H13.2098V12.1452H14.6775V13.6089ZM5.44536 0.16496C5.41162 0.114237 5.36582 0.072629 5.31204 0.043846C5.25826 0.0150631 5.19817 0 5.13713 0C5.0761 0 5.01601 0.0150631 4.96223 0.043846C4.90845 0.072629 4.86265 0.114237 4.82891 0.16496L0.0616486 6.19682C0.0212509 6.25755 -0.000200164 6.32886 2.92403e-06 6.40174V17.6297C-0.000190207 17.6781 0.00918562 17.7261 0.0275953 17.771C0.046005 17.8158 0.0730878 17.8565 0.107297 17.8909C0.141507 17.9253 0.182174 17.9527 0.226975 17.9714C0.271777 17.9901 0.319836 17.9998 0.368409 18H4.03779C4.13512 17.9988 4.22807 17.9595 4.29649 17.8904C4.3649 17.8214 4.40327 17.7282 4.40326 17.6312V15.0726H5.87101V17.6312C5.87101 17.729 5.90998 17.8228 5.97934 17.892C6.04871 17.9611 6.14279 18 6.24088 18H7.33876V9.21787C7.3387 9.10794 7.36347 8.9994 7.41124 8.90032C7.45901 8.80124 7.52855 8.71417 7.6147 8.64557L10.2743 6.2905C10.2743 6.21731 5.44536 0.16496 5.44536 0.16496ZM2.93551 12.1452H1.46775V10.6816H2.93551V12.1452ZM2.93551 7.75418H1.46775V6.2905H2.93551V7.75418ZM5.87101 12.1452H4.40326V10.6816H5.87101V12.1452ZM5.87101 7.75418H4.40326V6.2905H5.87101V7.75418Z" fill="#626464"/>
</svg>
