<svg width="13" height="17" viewBox="0 0 13 17" fill="none" xmlns="http://www.w3.org/2000/svg">
<path d="M2.45267 12.9882C2.52275 12.9201 2.59283 12.8861 2.69796 12.8861H7.88402C8.44468 11.9329 9.46087 11.3542 10.5822 11.3542C11.4582 11.3542 12.2641 11.6946 12.8248 12.2733C12.5445 11.1499 11.9488 10.0946 11.1078 9.24356C9.88136 8.05208 8.23443 7.40527 6.51762 7.40527C2.9084 7.40527 0 10.2308 0 13.7372V14.0435H1.40164L2.45267 12.9882Z" fill="#03565A"/>
<path d="M10.5811 12.0352C9.67007 12.0352 8.79404 12.5458 8.40859 13.3628C8.33851 13.4649 8.23339 13.5671 8.09322 13.5671H2.83708L1.99609 14.3841L2.83708 15.2011H8.09322C8.23339 15.2011 8.33851 15.2692 8.40859 15.4054C8.79404 16.2224 9.67007 16.733 10.5811 16.733C11.9127 16.733 12.999 15.6777 12.999 14.3841C12.999 13.0905 11.9127 12.0352 10.5811 12.0352ZM10.5811 15.5415C9.91536 15.5415 9.38974 15.0309 9.38974 14.3841C9.38974 13.7373 9.91536 13.2266 10.5811 13.2266C11.2469 13.2266 11.7725 13.7373 11.7725 14.3841C11.7725 15.0309 11.2469 15.5415 10.5811 15.5415Z" fill="#03565A"/>
<path d="M6.48204 6.72486C8.19905 6.72486 9.56565 5.36317 9.56565 3.72913C9.56565 2.06105 8.16401 0.733398 6.48204 0.733398C4.80008 0.733398 3.39844 2.06105 3.39844 3.72913C3.39844 5.39721 4.76504 6.72486 6.48204 6.72486Z" fill="#03565A"/>
</svg>
