<svg width="20" height="18" viewBox="0 0 20 18" fill="none" xmlns="http://www.w3.org/2000/svg">
<path d="M17.3932 0H2.48475C1.82584 0 1.19379 0.268113 0.727824 0.745616C0.26186 1.22297 0 1.87029 0 2.54549V15.2729C0 15.9481 0.26186 16.5954 0.727824 17.0728C1.19379 17.5503 1.82581 17.8184 2.48475 17.8184H17.3932C18.0521 17.8184 18.6842 17.5503 19.1501 17.0728C19.6161 16.5954 19.878 15.9481 19.878 15.2729V2.54549C19.878 1.87033 19.6161 1.22297 19.1501 0.745616C18.6842 0.268148 18.0522 0 17.3932 0ZM16.772 8.60996C16.7695 8.85129 16.6739 9.08197 16.5061 9.25156C16.3381 9.42098 16.1116 9.51553 15.8759 9.51464C15.6402 9.51361 15.4145 9.41714 15.2481 9.24623L14.6599 8.65452L14.3266 8.31302L10.6616 11.6497C10.4198 11.8707 10.0944 11.9697 9.77385 11.9197C9.45349 11.8697 9.17156 11.6757 9.00502 11.3909L7.80621 9.33326L4.43523 12.3031C4.13929 12.5619 3.73111 12.6392 3.36439 12.5061C2.99767 12.3731 2.72815 12.0496 2.65724 11.6577C2.58646 11.2657 2.72512 10.8648 3.02092 10.6061L7.36923 6.78782C7.61245 6.57431 7.93513 6.48168 8.25127 6.53435C8.5673 6.58718 8.84462 6.77998 9.00912 7.06141L10.1977 9.09151L12.786 6.73485L12.084 6.01575C11.9172 5.84515 11.823 5.61389 11.8222 5.37241C11.8212 5.13093 11.9135 4.89892 12.079 4.72698C12.2444 4.5549 12.4695 4.45694 12.7053 4.45443H15.5296C15.859 4.45443 16.175 4.58864 16.408 4.82731C16.6411 5.06598 16.772 5.38974 16.772 5.72724V8.60996Z" fill="#626464"/>
</svg>
