<svg width="21" height="15" viewBox="0 0 21 15" fill="none" xmlns="http://www.w3.org/2000/svg">
<path d="M10.5 8C10.5 8 10.5 8 10.5 6.64921C10.5 5.34373 12.1173 4.45876 13.0927 3.77281L8.56225 0.166003C8.2804 -0.0553343 7.86851 -0.0553343 7.58683 0.166003L4.59541 2.53355V1.55991C4.59541 1.3165 4.40035 1.1174 4.16191 1.1174H3.35991C3.12146 1.1174 2.92642 1.31651 2.92642 1.55991V3.86108L0.368485 5.89692C0.130033 6.07396 0 6.36167 0 6.64921V7.00328C0 7.33513 0.260074 7.57856 0.563556 7.57856H1.92923V13.8406C1.92923 14.1504 2.1893 14.4159 2.49278 14.4159H10.0146C10.3083 14.4159 10.5 14.155 10.5 14V12.5C10.5 10.9511 10.5 8 10.5 8Z" fill="#03565A"/>
<path d="M16.5 5C14.0194 5 12 7.01937 12 9.5C12 11.9806 14.0194 14 16.5 14C18.9806 14 21 11.9806 21 9.5C21 7.01937 18.9806 5 16.5 5ZM16.6995 6.53322C17.1358 6.53322 17.4723 6.88225 17.4723 7.31856C17.4723 7.75487 17.1233 8.1039 16.6995 8.1039C16.2631 8.1039 15.9141 7.74245 15.9141 7.30612C15.9141 6.88223 16.2757 6.53322 16.6995 6.53322ZM17.8089 11.8061C17.7965 11.8684 17.7465 11.9432 17.6967 11.993C17.41 12.2797 17.0734 12.4542 16.6621 12.4542C16.4751 12.4542 16.2757 12.4542 16.0886 12.4293C15.777 12.3794 15.3781 11.9929 15.4404 11.5817C15.4778 11.295 15.5277 11.0207 15.5651 10.7341C15.6524 10.2479 15.7396 9.76176 15.8144 9.27561C15.8144 9.25065 15.8268 9.21326 15.8268 9.18831C15.8268 8.98884 15.7645 8.91407 15.565 8.88912C15.4777 8.87668 15.3905 8.86416 15.3032 8.83929C15.2035 8.8019 15.1536 8.72712 15.1661 8.63983C15.1785 8.55253 15.2284 8.5027 15.3406 8.47775C15.4029 8.46532 15.4653 8.46532 15.5151 8.46532H16.2381H16.9985C17.1854 8.46532 17.2851 8.55262 17.2977 8.73955C17.2977 8.88911 17.2727 9.03875 17.2478 9.18831C17.1481 9.74923 17.0484 10.2977 16.9486 10.8586C16.9113 11.0456 16.8739 11.2326 16.8613 11.4071C16.8489 11.4944 16.8613 11.5941 16.8863 11.6814C16.9113 11.7936 16.9985 11.8559 17.1232 11.8435C17.2229 11.831 17.3226 11.7936 17.4098 11.7562C17.4846 11.7312 17.5594 11.6689 17.6342 11.644C17.7465 11.6066 17.8463 11.6814 17.8089 11.8061Z" fill="#03565A"/>
</svg>
