<svg width="21" height="15" viewBox="0 0 21 15" fill="none" xmlns="http://www.w3.org/2000/svg">
<path d="M11.8198 8.59849C11.5606 8.0896 11.431 7.51421 11.431 6.91685C11.431 5.61137 12.0793 4.46071 13.0516 3.77476L8.53539 0.167956C8.25443 -0.0533812 7.84383 -0.0533812 7.56303 0.167956L4.58099 2.53551V1.56186C4.58099 1.31845 4.38655 1.11936 4.14886 1.11936H3.34937C3.11167 1.11936 2.91724 1.31847 2.91724 1.56186V3.86303L0.367329 5.89887C0.129625 6.07591 0 6.36363 0 6.65116V7.00524C0 7.33709 0.259258 7.58051 0.561788 7.58051H1.92318V13.8426C1.92318 14.1523 2.18243 14.4178 2.48496 14.4178H9.98319C9.93993 14.2629 9.91838 14.086 9.91838 13.931V12.2051C9.91838 10.6562 10.5882 9.39504 11.82 8.59845L11.8198 8.59849Z" fill="#03565A"/>
<path d="M15.1265 9.26276C16.4012 9.26276 17.4385 8.20069 17.4385 6.89505C17.4385 5.58958 16.4014 4.52734 15.1265 4.52734C13.8517 4.52734 12.8145 5.58942 12.8145 6.89505C12.8145 8.20069 13.8517 9.26276 15.1265 9.26276Z" fill="#03565A"/>
<path d="M19.6214 3.5086C19.0597 3.48653 18.6059 3.92906 18.6059 4.48225V5.07973C18.6491 7.18179 18.1953 8.68653 17.3094 9.43882C17.2013 9.52727 17.0717 9.63794 16.9636 9.70431C16.4235 10.0584 15.797 10.2796 15.1055 10.2796C14.306 10.2796 13.5713 9.99187 13.0096 9.50504C12.0589 9.94755 11.3027 10.7664 11.3027 12.1603V13.8862C11.3027 14.1517 11.5189 14.373 11.7781 14.373L18.4762 14.3732C18.7354 14.3732 18.9515 14.1518 18.9515 13.8864V12.1604V11.917C18.9083 11.2089 19.0596 10.523 19.4269 9.9477C20.1832 8.77494 20.5721 7.13748 20.5288 5.07967V4.54857C20.5288 4.01747 20.14 3.55288 19.6213 3.50858L19.6214 3.5086Z" fill="#03565A"/>
</svg>
