<svg width="18" height="19" viewBox="0 0 18 19" fill="none" xmlns="http://www.w3.org/2000/svg">
<path fill-rule="evenodd" clip-rule="evenodd" d="M0.225586 9.66402C0.225586 4.83587 4.13958 0.921875 8.96773 0.921875C13.7959 0.921875 17.7098 4.83587 17.7098 9.66402C17.7098 14.4921 13.7959 18.4061 8.96773 18.4061C4.13958 18.4061 0.225586 14.4921 0.225586 9.66402ZM8.96773 2.17587C4.83214 2.17587 1.47959 5.52843 1.47959 9.66402C1.47959 13.7996 4.83214 17.1521 8.96773 17.1521C13.1033 17.1521 16.4558 13.7996 16.4558 9.66402C16.4558 5.52843 13.1033 2.17587 8.96773 2.17587ZM12.0746 6.55748C12.3323 6.81522 12.3323 7.23312 12.0746 7.49086L9.90126 9.66416L12.0746 11.8375C12.3323 12.0952 12.3323 12.5131 12.0746 12.7709C11.8168 13.0286 11.3989 13.0286 11.1412 12.7709L8.96787 10.5975L6.79457 12.7709C6.53683 13.0286 6.11893 13.0286 5.86119 12.7709C5.60344 12.5131 5.60344 12.0952 5.86119 11.8375L8.0345 9.66416L5.86119 7.49086C5.60344 7.23312 5.60344 6.81522 5.86119 6.55748C6.11893 6.29973 6.53683 6.29973 6.79457 6.55748L8.96787 8.73079L11.1412 6.55748C11.3989 6.29973 11.8168 6.29973 12.0746 6.55748Z" fill="#03565A"/>
</svg>
