<svg width="20" height="20" viewBox="0 0 20 20" fill="none" xmlns="http://www.w3.org/2000/svg">
<path d="M11.0456 5.12185V13.5638H8.63362V5.12185H5.01562L9.83962 0.297852L14.6636 5.12185H11.0456Z" fill="#03565A"/>
<path d="M18.282 19.5942H1.39805C1.05192 19.5942 0.722687 19.4458 0.493547 19.1866C0.264407 18.9273 0.158279 18.5823 0.200489 18.2386L1.40649 8.59064C1.48247 7.98643 1.99622 7.53418 2.60405 7.53418H6.22205V9.94618H3.66894L2.76444 17.1822H16.9156L16.0111 9.94618H13.458V7.53418H17.076C17.6839 7.53418 18.1976 7.98643 18.2724 8.59064L19.4784 18.2386C19.5218 18.5823 19.4145 18.9273 19.1853 19.1866C18.9574 19.4458 18.6282 19.5942 18.282 19.5942Z" fill="#03565A"/>
</svg>
