<svg width="23" height="12" viewBox="0 0 23 12" fill="none" xmlns="http://www.w3.org/2000/svg">
<path d="M11.4971 2.24023C9.3813 2.24023 7.66016 3.92686 7.66016 6.00002C7.66016 8.07037 9.38136 9.75498 11.4971 9.75498C13.6159 9.75498 15.3397 8.07054 15.3397 6.00002C15.3397 3.92681 13.6159 2.24023 11.4971 2.24023ZM11.4978 7.9848C10.3783 7.9848 9.46754 7.09357 9.46754 5.99817C9.46754 4.90276 10.3783 4.01154 11.4978 4.01154C12.6173 4.01154 13.5281 4.90276 13.5281 5.99817C13.5283 7.09357 12.6173 7.9848 11.4978 7.9848Z" fill="#55BB8B"/>
<path d="M11.5 0C7.18526 0 3.1142 2.12903 0 6C3.11892 9.87102 7.1898 12 11.5 12C15.8102 12 19.8812 9.87097 23 6C19.8858 2.12898 15.8148 0 11.5 0ZM11.5 10.7487C8.82286 10.7487 6.64711 8.61965 6.64711 6.00011C6.64711 3.38057 8.82292 1.24692 11.5 1.24692C14.1771 1.24692 16.3576 3.38057 16.3576 6.00011C16.3576 8.61965 14.1771 10.7487 11.5 10.7487Z" fill="#55BB8B"/>
</svg>
