<svg width="17" height="11" viewBox="0 0 17 11" fill="none" xmlns="http://www.w3.org/2000/svg">
<path d="M8.16399 10.4903C11.6164 10.4903 14.6582 8.49037 15.9458 5.39131L16.0018 5.26525L15.9458 5.13907C14.6582 2.04014 11.6164 0.0400391 8.16399 0.0400391C4.71161 0.0400391 1.66979 2.04001 0.382146 5.13907L0.326172 5.26525L0.382146 5.39144C1.66982 8.49036 4.71161 10.4905 8.16399 10.4905V10.4903ZM8.16399 0.760746C11.2618 0.760746 13.9864 2.52645 15.1807 5.26519C13.9864 8.00392 11.2618 9.76963 8.16399 9.76963C5.06615 9.76963 2.3416 8.00392 1.14727 5.26519C2.34147 2.52645 5.06618 0.760746 8.16399 0.760746Z" fill="#03565A"/>
<path d="M8.16403 9.0489C10.3288 9.0489 12.0829 7.3552 12.0829 5.26517C12.0829 3.17515 10.3287 1.48145 8.16403 1.48145C5.99926 1.48145 4.24512 3.17515 4.24512 5.26517C4.24512 7.3552 5.99933 9.0489 8.16403 9.0489ZM9.75019 3.4634C10.2167 3.4634 10.5899 3.82372 10.5899 4.27417C10.5901 4.72461 10.2167 5.08493 9.75019 5.08493C9.28365 5.08493 8.91046 4.72461 8.91046 4.27417C8.91046 3.82372 9.28365 3.4634 9.75019 3.4634Z" fill="#03565A"/>
</svg>
